<svg xmlns="http://www.w3.org/2000/svg" xmlns:xlink="http://www.w3.org/1999/xlink" width="500" zoomAndPan="magnify" viewBox="0 0 375 374.999991" height="500" preserveAspectRatio="xMidYMid meet" version="1.0"><defs><g/><clipPath id="id1"><path d="M 197 181.171875 L 307.019531 181.171875 L 307.019531 329.167969 L 197 329.167969 Z M 197 181.171875 " clip-rule="nonzero"/></clipPath><clipPath id="id2"><path d="M 132 6.335938 L 242.351562 6.335938 L 242.351562 329.167969 L 132 329.167969 Z M 132 6.335938 " clip-rule="nonzero"/></clipPath><clipPath id="id3"><path d="M 67.769531 113 L 177.570312 113 L 177.570312 329.167969 L 67.769531 329.167969 Z M 67.769531 113 " clip-rule="nonzero"/></clipPath><clipPath id="id4"><path d="M 96 95.464844 L 111.324219 95.464844 L 111.324219 157.714844 L 96 157.714844 Z M 96 95.464844 " clip-rule="nonzero"/></clipPath><clipPath id="id5"><path d="M 79.074219 119 L 95 119 L 95 157.714844 L 79.074219 157.714844 Z M 79.074219 119 " clip-rule="nonzero"/></clipPath></defs><rect x="-37.5" width="450" fill="#ffffff" y="-37.499999" height="449.999989" fill-opacity="1"/><rect x="-37.5" width="450" fill="#ffffff" y="-37.499999" height="449.999989" fill-opacity="1"/><rect x="-37.5" width="450" fill="#ffffff" y="-37.499999" height="449.999989" fill-opacity="1"/><g clip-path="url(#id1)"><path fill="#000000" d="M 252.175781 181.78125 L 197.28125 237.945312 L 197.28125 302.953125 L 214.964844 302.953125 L 214.964844 245.167969 L 252.175781 207.09375 L 289.386719 245.167969 L 289.386719 311.460938 L 250.808594 311.460938 L 250.808594 329.167969 L 307.070312 329.167969 L 307.070312 237.945312 L 252.175781 181.78125 " fill-opacity="1" fill-rule="nonzero"/></g><g clip-path="url(#id2)"><path fill="#4c8b30" d="M 187.421875 6.328125 L 132.527344 62.492188 L 132.527344 302.953125 L 150.210938 302.953125 L 150.210938 69.714844 L 187.421875 31.648438 L 224.632812 69.714844 L 224.632812 197.800781 L 242.316406 179.707031 L 242.316406 62.492188 Z M 224.632812 311.460938 L 186.054688 311.460938 L 186.054688 329.167969 L 242.316406 329.167969 L 242.316406 229.34375 L 224.632812 247.433594 L 224.632812 311.460938 " fill-opacity="1" fill-rule="nonzero"/></g><g clip-path="url(#id3)"><path fill="#000000" d="M 158.703125 150.152344 L 158.703125 175.464844 L 159.878906 176.671875 L 159.878906 311.460938 L 85.453125 311.460938 L 85.453125 176.671875 L 122.664062 138.597656 L 124.035156 139.996094 L 124.035156 114.679688 L 122.664062 113.285156 L 67.769531 169.445312 L 67.769531 329.167969 L 177.5625 329.167969 L 177.5625 169.445312 L 158.703125 150.152344 " fill-opacity="1" fill-rule="nonzero"/></g><g clip-path="url(#id4)"><path fill="#000000" d="M 111.046875 158.296875 C 111.195312 158.296875 111.347656 158.292969 111.496094 158.292969 L 111.496094 96.347656 L 125.058594 106.175781 L 125.058594 159.136719 C 125.207031 159.15625 125.359375 159.171875 125.507812 159.195312 L 125.507812 105.949219 L 111.042969 95.460938 L 96.578125 105.949219 L 96.578125 159.328125 C 101.1875 158.675781 106.035156 158.320312 111.046875 158.296875 Z M 111.046875 158.296875 " fill-opacity="1" fill-rule="nonzero"/></g><g clip-path="url(#id5)"><path fill="#000000" d="M 94.089844 119.054688 L 79.625 129.539062 L 79.625 163.410156 C 84.015625 161.839844 88.882812 160.585938 94.089844 159.710938 Z M 94.089844 119.054688 " fill-opacity="1" fill-rule="nonzero"/></g><path stroke-linecap="butt" transform="matrix(7.867105, -7.383154, 7.066484, 7.529678, 107.409197, 161.465848)" fill="none" stroke-linejoin="miter" d="M 0.00012854 -0.00000730677 L 0.97322 0.00011108 " stroke="#ffffff" stroke-width="1" stroke-opacity="1" stroke-miterlimit="4"/><g fill="#000000" fill-opacity="1"><g transform="translate(73.612534, 368.565158)"><g><path d="M 5.890625 0 C 5.359375 0 4.960938 -0.125 4.703125 -0.375 C 4.453125 -0.632812 4.328125 -1.03125 4.328125 -1.5625 L 4.328125 -31.71875 C 4.328125 -32.257812 4.453125 -32.65625 4.703125 -32.90625 C 4.960938 -33.164062 5.359375 -33.296875 5.890625 -33.296875 L 15.640625 -33.296875 C 20.210938 -33.296875 23.828125 -31.9375 26.484375 -29.21875 C 29.148438 -26.507812 30.484375 -22.316406 30.484375 -16.640625 C 30.484375 -10.972656 29.148438 -6.78125 26.484375 -4.0625 C 23.828125 -1.351562 20.210938 0 15.640625 0 Z M 15.40625 -4.375 C 18.414062 -4.375 20.804688 -5.378906 22.578125 -7.390625 C 24.359375 -9.410156 25.25 -12.492188 25.25 -16.640625 C 25.25 -20.796875 24.359375 -23.878906 22.578125 -25.890625 C 20.804688 -27.910156 18.414062 -28.921875 15.40625 -28.921875 L 9.421875 -28.921875 L 9.421875 -4.375 Z M 15.40625 -4.375 "/></g></g></g><g fill="#000000" fill-opacity="1"><g transform="translate(110.325376, 368.565158)"><g><path d="M 6.421875 0.09375 C 4.960938 0.09375 4.234375 -0.300781 4.234375 -1.09375 L 4.234375 -31.71875 C 4.234375 -32.257812 4.359375 -32.65625 4.609375 -32.90625 C 4.867188 -33.164062 5.265625 -33.296875 5.796875 -33.296875 L 14.171875 -33.296875 C 18.035156 -33.296875 20.925781 -32.597656 22.84375 -31.203125 C 24.769531 -29.804688 25.734375 -27.648438 25.734375 -24.734375 C 25.734375 -22.796875 25.238281 -21.160156 24.25 -19.828125 C 23.269531 -18.503906 21.925781 -17.507812 20.21875 -16.84375 L 20.21875 -16.640625 C 21.039062 -16.359375 21.769531 -15.753906 22.40625 -14.828125 C 23.039062 -13.910156 23.65625 -12.675781 24.25 -11.125 L 28.109375 -1.46875 C 28.234375 -1.03125 28.296875 -0.78125 28.296875 -0.71875 C 28.296875 -0.175781 27.535156 0.09375 26.015625 0.09375 L 25.109375 0.09375 C 24.566406 0.09375 24.101562 0.0234375 23.71875 -0.109375 C 23.34375 -0.253906 23.09375 -0.457031 22.96875 -0.71875 L 19.3125 -10.03125 C 18.675781 -11.613281 17.894531 -12.695312 16.96875 -13.28125 C 16.050781 -13.875 14.691406 -14.171875 12.890625 -14.171875 L 9.328125 -14.171875 L 9.328125 -1.09375 C 9.328125 -0.300781 8.597656 0.09375 7.140625 0.09375 Z M 15.078125 -18.59375 C 16.566406 -18.59375 17.84375 -19.113281 18.90625 -20.15625 C 19.96875 -21.207031 20.5 -22.460938 20.5 -23.921875 C 20.5 -25.566406 19.984375 -26.8125 18.953125 -27.65625 C 17.921875 -28.5 16.519531 -28.921875 14.75 -28.921875 L 9.328125 -28.921875 L 9.328125 -18.59375 Z M 15.078125 -18.59375 "/></g></g></g><g fill="#000000" fill-opacity="1"><g transform="translate(142.996122, 368.565158)"><g><path d="M 12.9375 0.09375 C 11.476562 0.09375 10.75 -0.300781 10.75 -1.09375 L 10.75 -16.734375 L 0.953125 -31.578125 C 0.660156 -31.960938 0.515625 -32.28125 0.515625 -32.53125 C 0.515625 -33.101562 1.328125 -33.390625 2.953125 -33.390625 L 3.953125 -33.390625 C 4.546875 -33.390625 5.015625 -33.332031 5.359375 -33.21875 C 5.710938 -33.113281 5.988281 -32.914062 6.1875 -32.625 L 13.40625 -21.359375 L 20.78125 -32.671875 C 21.101562 -33.148438 21.894531 -33.390625 23.15625 -33.390625 L 23.875 -33.390625 C 25.332031 -33.359375 26.0625 -33.070312 26.0625 -32.53125 C 26.0625 -32.3125 25.9375 -31.992188 25.6875 -31.578125 L 15.84375 -16.59375 L 15.84375 -1.09375 C 15.84375 -0.300781 15.113281 0.09375 13.65625 0.09375 Z M 12.9375 0.09375 "/></g></g></g><g fill="#000000" fill-opacity="1"><g transform="translate(173.241588, 368.565158)"><g><path d="M 10.65625 0.09375 C 9.414062 0.09375 8.703125 -0.175781 8.515625 -0.71875 L 0.578125 -31.765625 C 0.503906 -32.085938 0.46875 -32.3125 0.46875 -32.4375 C 0.46875 -33.070312 1.234375 -33.390625 2.765625 -33.390625 L 3.46875 -33.390625 C 4.832031 -33.390625 5.578125 -33.070312 5.703125 -32.4375 L 11.03125 -11.375 C 11.320312 -10.289062 11.578125 -9.050781 11.796875 -7.65625 L 12.078125 -6.234375 C 12.203125 -6.835938 12.488281 -8.007812 12.9375 -9.75 L 13.359375 -11.46875 L 18.59375 -32.53125 C 18.71875 -33.101562 19.398438 -33.390625 20.640625 -33.390625 L 21.734375 -33.390625 C 22.972656 -33.390625 23.65625 -33.101562 23.78125 -32.53125 L 29.0625 -11.3125 C 29.25 -10.519531 29.597656 -8.796875 30.109375 -6.140625 L 31.390625 -11.421875 L 36.578125 -32.4375 C 36.703125 -33.070312 37.460938 -33.390625 38.859375 -33.390625 L 39.1875 -33.390625 C 40.707031 -33.390625 41.46875 -33.070312 41.46875 -32.4375 L 41.375 -31.765625 L 33.296875 -0.71875 C 33.171875 -0.175781 32.457031 0.09375 31.15625 0.09375 L 28.78125 0.09375 C 28.207031 0.09375 27.726562 0.03125 27.34375 -0.09375 C 26.96875 -0.21875 26.75 -0.425781 26.6875 -0.71875 L 21.875 -19.265625 L 20.921875 -24.59375 L 19.96875 -19.265625 L 15.125 -0.71875 C 15.0625 -0.425781 14.835938 -0.21875 14.453125 -0.09375 C 14.078125 0.03125 13.601562 0.09375 13.03125 0.09375 Z M 10.65625 0.09375 "/></g></g></g><g fill="#000000" fill-opacity="1"><g transform="translate(218.847051, 368.565158)"><g><path d="M 2.71875 0.09375 C 1.1875 0.09375 0.421875 -0.191406 0.421875 -0.765625 C 0.421875 -0.953125 0.472656 -1.203125 0.578125 -1.515625 L 11.609375 -32.578125 C 11.796875 -33.117188 12.507812 -33.390625 13.75 -33.390625 L 15.40625 -33.390625 C 16.644531 -33.390625 17.359375 -33.117188 17.546875 -32.578125 L 28.578125 -1.46875 C 28.679688 -1.1875 28.734375 -0.953125 28.734375 -0.765625 C 28.734375 -0.191406 28.019531 0.09375 26.59375 0.09375 L 25.734375 0.09375 C 24.523438 0.09375 23.8125 -0.175781 23.59375 -0.71875 L 21.0625 -7.9375 L 7.890625 -7.9375 L 5.421875 -0.71875 C 5.203125 -0.175781 4.535156 0.09375 3.421875 0.09375 Z M 19.546875 -12.3125 L 15.21875 -24.875 C 15.09375 -25.320312 14.972656 -25.84375 14.859375 -26.4375 C 14.753906 -27.039062 14.671875 -27.472656 14.609375 -27.734375 L 14.5 -27.734375 C 14.25 -26.398438 14.015625 -25.445312 13.796875 -24.875 L 9.421875 -12.3125 Z M 19.546875 -12.3125 "/></g></g></g><g fill="#000000" fill-opacity="1"><g transform="translate(251.66045, 368.565158)"><g><path d="M 5.890625 0 C 5.359375 0 4.960938 -0.125 4.703125 -0.375 C 4.453125 -0.632812 4.328125 -1.03125 4.328125 -1.5625 L 4.328125 -32.203125 C 4.328125 -32.992188 5.054688 -33.390625 6.515625 -33.390625 L 7.234375 -33.390625 C 8.691406 -33.390625 9.421875 -32.992188 9.421875 -32.203125 L 9.421875 -4.375 L 21.6875 -4.375 C 22.070312 -4.375 22.347656 -4.238281 22.515625 -3.96875 C 22.691406 -3.695312 22.78125 -3.257812 22.78125 -2.65625 L 22.78125 -1.71875 C 22.78125 -1.113281 22.691406 -0.675781 22.515625 -0.40625 C 22.347656 -0.132812 22.070312 0 21.6875 0 Z M 5.890625 0 "/></g></g></g><g fill="#000000" fill-opacity="1"><g transform="translate(278.339364, 368.565158)"><g><path d="M 5.890625 0 C 5.359375 0 4.960938 -0.125 4.703125 -0.375 C 4.453125 -0.632812 4.328125 -1.03125 4.328125 -1.5625 L 4.328125 -32.203125 C 4.328125 -32.992188 5.054688 -33.390625 6.515625 -33.390625 L 7.234375 -33.390625 C 8.691406 -33.390625 9.421875 -32.992188 9.421875 -32.203125 L 9.421875 -4.375 L 21.6875 -4.375 C 22.070312 -4.375 22.347656 -4.238281 22.515625 -3.96875 C 22.691406 -3.695312 22.78125 -3.257812 22.78125 -2.65625 L 22.78125 -1.71875 C 22.78125 -1.113281 22.691406 -0.675781 22.515625 -0.40625 C 22.347656 -0.132812 22.070312 0 21.6875 0 Z M 5.890625 0 "/></g></g></g><g fill="#000000" fill-opacity="1"><g transform="translate(128.034258, 299.712421)"><g><path d="M -19.984375 -8.15625 C -19.984375 -7.476562 -19.898438 -6.878906 -19.734375 -6.359375 C -19.578125 -5.847656 -19.347656 -5.414062 -19.046875 -5.0625 C -18.753906 -4.71875 -18.398438 -4.457031 -17.984375 -4.28125 C -17.578125 -4.101562 -17.128906 -4.015625 -16.640625 -4.015625 C -16.285156 -4.015625 -15.9375 -4.0625 -15.59375 -4.15625 C -15.257812 -4.25 -14.914062 -4.453125 -14.5625 -4.765625 C -14.207031 -5.078125 -13.835938 -5.53125 -13.453125 -6.125 C -13.078125 -6.71875 -12.671875 -7.515625 -12.234375 -8.515625 C -11.703125 -9.671875 -11.203125 -10.648438 -10.734375 -11.453125 C -10.273438 -12.253906 -9.785156 -12.90625 -9.265625 -13.40625 C -8.742188 -13.90625 -8.160156 -14.265625 -7.515625 -14.484375 C -6.867188 -14.710938 -6.097656 -14.828125 -5.203125 -14.828125 C -4.515625 -14.828125 -3.828125 -14.6875 -3.140625 -14.40625 C -2.460938 -14.132812 -1.851562 -13.722656 -1.3125 -13.171875 C -0.78125 -12.617188 -0.34375 -11.921875 0 -11.078125 C 0.332031 -10.242188 0.5 -9.265625 0.5 -8.140625 C 0.5 -6.890625 0.378906 -5.835938 0.140625 -4.984375 C -0.0859375 -4.128906 -0.382812 -3.441406 -0.75 -2.921875 C -1.125 -2.410156 -1.546875 -2.039062 -2.015625 -1.8125 C -2.484375 -1.59375 -2.953125 -1.484375 -3.421875 -1.484375 C -3.734375 -1.484375 -4.023438 -1.53125 -4.296875 -1.625 C -4.566406 -1.71875 -4.800781 -1.851562 -5 -2.03125 C -5.207031 -2.21875 -5.367188 -2.445312 -5.484375 -2.71875 C -5.609375 -2.988281 -5.671875 -3.296875 -5.671875 -3.640625 C -5.671875 -3.953125 -5.613281 -4.234375 -5.5 -4.484375 C -5.394531 -4.742188 -5.25 -4.957031 -5.0625 -5.125 C -4.875 -5.300781 -4.65625 -5.4375 -4.40625 -5.53125 C -4.15625 -5.632812 -3.882812 -5.6875 -3.59375 -5.6875 C -2.914062 -5.6875 -2.40625 -5.492188 -2.0625 -5.109375 C -1.726562 -4.722656 -1.5625 -4.222656 -1.5625 -3.609375 L -1.5 -3.609375 C -1.425781 -3.671875 -1.320312 -3.796875 -1.1875 -3.984375 C -1.0625 -4.179688 -0.929688 -4.453125 -0.796875 -4.796875 C -0.660156 -5.148438 -0.539062 -5.578125 -0.4375 -6.078125 C -0.34375 -6.585938 -0.296875 -7.1875 -0.296875 -7.875 C -0.296875 -8.445312 -0.367188 -9.015625 -0.515625 -9.578125 C -0.671875 -10.140625 -0.890625 -10.640625 -1.171875 -11.078125 C -1.460938 -11.515625 -1.8125 -11.867188 -2.21875 -12.140625 C -2.625 -12.421875 -3.082031 -12.5625 -3.59375 -12.5625 C -4.03125 -12.5625 -4.4375 -12.476562 -4.8125 -12.3125 C -5.1875 -12.15625 -5.570312 -11.851562 -5.96875 -11.40625 C -6.363281 -10.96875 -6.785156 -10.351562 -7.234375 -9.5625 C -7.679688 -8.769531 -8.191406 -7.738281 -8.765625 -6.46875 C -9.160156 -5.53125 -9.597656 -4.757812 -10.078125 -4.15625 C -10.554688 -3.5625 -11.0625 -3.09375 -11.59375 -2.75 C -12.125 -2.40625 -12.679688 -2.164062 -13.265625 -2.03125 C -13.847656 -1.894531 -14.445312 -1.828125 -15.0625 -1.828125 C -15.84375 -1.828125 -16.578125 -1.96875 -17.265625 -2.25 C -17.953125 -2.539062 -18.550781 -2.953125 -19.0625 -3.484375 C -19.582031 -4.023438 -19.992188 -4.691406 -20.296875 -5.484375 C -20.609375 -6.273438 -20.765625 -7.175781 -20.765625 -8.1875 C -20.765625 -9.164062 -20.648438 -10.015625 -20.421875 -10.734375 C -20.191406 -11.460938 -19.890625 -12.0625 -19.515625 -12.53125 C -19.140625 -13.007812 -18.703125 -13.363281 -18.203125 -13.59375 C -17.710938 -13.832031 -17.195312 -13.953125 -16.65625 -13.953125 C -16.375 -13.953125 -16.101562 -13.90625 -15.84375 -13.8125 C -15.582031 -13.71875 -15.351562 -13.582031 -15.15625 -13.40625 C -14.957031 -13.226562 -14.800781 -13.003906 -14.6875 -12.734375 C -14.570312 -12.472656 -14.515625 -12.171875 -14.515625 -11.828125 C -14.515625 -11.515625 -14.566406 -11.226562 -14.671875 -10.96875 C -14.773438 -10.71875 -14.914062 -10.5 -15.09375 -10.3125 C -15.269531 -10.125 -15.476562 -9.976562 -15.71875 -9.875 C -15.96875 -9.78125 -16.242188 -9.734375 -16.546875 -9.734375 C -16.867188 -9.734375 -17.160156 -9.789062 -17.421875 -9.90625 C -17.679688 -10.019531 -17.898438 -10.171875 -18.078125 -10.359375 C -18.253906 -10.554688 -18.382812 -10.785156 -18.46875 -11.046875 C -18.5625 -11.316406 -18.609375 -11.601562 -18.609375 -11.90625 L -18.671875 -11.90625 C -18.734375 -11.851562 -18.835938 -11.738281 -18.984375 -11.5625 C -19.128906 -11.394531 -19.273438 -11.160156 -19.421875 -10.859375 C -19.578125 -10.554688 -19.707031 -10.179688 -19.8125 -9.734375 C -19.925781 -9.296875 -19.984375 -8.769531 -19.984375 -8.15625 Z M -19.984375 -8.15625 "/></g></g></g><g fill="#000000" fill-opacity="1"><g transform="translate(128.034258, 283.635728)"><g><path d="M 0 0.078125 L -0.640625 0.078125 L -0.78125 -1.625 L -20.84375 -8.34375 L -20.84375 -8.984375 L -0.78125 -15.9375 L -0.640625 -17.796875 L 0 -17.796875 L 0 -10.203125 L -0.640625 -10.203125 L -0.78125 -12.125 L -5.875 -10.453125 L -5.875 -4.09375 L -0.78125 -2.4375 L -0.640625 -4.359375 L 0 -4.359375 Z M -6.734375 -4.34375 L -6.84375 -10.140625 L -15.5625 -7.296875 L -15.5625 -7.234375 Z M -6.734375 -4.34375 "/></g></g></g><g fill="#000000" fill-opacity="1"><g transform="translate(128.034258, 265.897834)"><g><path d="M -19.625 -0.984375 L -20.265625 -0.984375 L -20.265625 -4.015625 L -5.5 -16.203125 L -5.5 -16.234375 L -19.484375 -16.03125 L -19.625 -13.859375 L -20.265625 -13.859375 L -20.265625 -19.109375 L -19.625 -19.109375 L -19.484375 -16.921875 L 0.28125 -17.078125 L 0.28125 -16.21875 L -14.53125 -4.03125 L -14.53125 -4 L -0.78125 -4.203125 L -0.640625 -6.375 L 0 -6.375 L 0 -1.125 L -0.640625 -1.125 L -0.78125 -3.3125 L -19.484375 -3.15625 Z M -19.625 -0.984375 "/></g></g></g><g fill="#000000" fill-opacity="1"><g transform="translate(128.034258, 245.646842)"><g><path d="M -9.765625 -1.390625 C -10.816406 -1.390625 -11.851562 -1.503906 -12.875 -1.734375 C -13.894531 -1.960938 -14.882812 -2.320312 -15.84375 -2.8125 C -16.800781 -3.3125 -17.640625 -3.921875 -18.359375 -4.640625 C -19.085938 -5.359375 -19.671875 -6.25 -20.109375 -7.3125 C -20.546875 -8.375 -20.765625 -9.539062 -20.765625 -10.8125 C -20.765625 -12.28125 -20.359375 -13.578125 -19.546875 -14.703125 C -18.734375 -15.835938 -17.773438 -16.40625 -16.671875 -16.40625 C -16.109375 -16.40625 -15.628906 -16.222656 -15.234375 -15.859375 C -14.835938 -15.503906 -14.640625 -15.019531 -14.640625 -14.40625 C -14.640625 -13.820312 -14.820312 -13.34375 -15.1875 -12.96875 C -15.550781 -12.601562 -16.007812 -12.421875 -16.5625 -12.421875 C -17.113281 -12.421875 -17.578125 -12.59375 -17.953125 -12.9375 C -18.328125 -13.289062 -18.515625 -13.726562 -18.515625 -14.25 C -18.515625 -14.351562 -18.507812 -14.429688 -18.5 -14.484375 L -18.5625 -14.484375 C -18.820312 -14.335938 -19.117188 -13.953125 -19.453125 -13.328125 C -19.785156 -12.703125 -19.953125 -11.953125 -19.953125 -11.078125 C -19.953125 -9.347656 -19.054688 -7.929688 -17.265625 -6.828125 C -15.472656 -5.722656 -13.113281 -5.171875 -10.1875 -5.171875 C -8.925781 -5.171875 -7.734375 -5.28125 -6.609375 -5.5 C -5.484375 -5.71875 -4.460938 -6.039062 -3.546875 -6.46875 C -2.628906 -6.894531 -1.898438 -7.472656 -1.359375 -8.203125 C -0.816406 -8.929688 -0.546875 -9.765625 -0.546875 -10.703125 C -0.546875 -12.046875 -0.941406 -13.21875 -1.734375 -14.21875 C -2.535156 -15.21875 -3.5625 -15.992188 -4.8125 -16.546875 L -4.5 -17.203125 C -1.164062 -15.847656 0.5 -13.570312 0.5 -10.375 C 0.5 -8.988281 0.304688 -7.757812 -0.078125 -6.6875 C -0.472656 -5.613281 -0.988281 -4.75 -1.625 -4.09375 C -2.257812 -3.4375 -3.03125 -2.898438 -3.9375 -2.484375 C -4.851562 -2.066406 -5.78125 -1.78125 -6.71875 -1.625 C -7.65625 -1.46875 -8.671875 -1.390625 -9.765625 -1.390625 Z M -9.765625 -1.390625 "/></g></g></g><g fill="#000000" fill-opacity="1"><g transform="translate(128.034258, 227.681773)"><g><path d="M 0 -1.03125 L -0.640625 -1.03125 L -0.78125 -3.21875 L -19.484375 -3.21875 L -19.625 -1.03125 L -20.265625 -1.03125 L -20.265625 -9.046875 L -19.625 -9.046875 L -19.484375 -6.859375 L -10.8125 -6.859375 L -10.9375 -14.5 L -19.484375 -14.5 L -19.625 -12.3125 L -20.265625 -12.3125 L -20.265625 -20.3125 L -19.625 -20.3125 L -19.484375 -18.125 L -0.78125 -18.125 L -0.640625 -20.3125 L 0 -20.3125 L 0 -12.3125 L -0.640625 -12.3125 L -0.78125 -14.5 L -9.96875 -14.5 L -9.96875 -6.859375 L -0.78125 -6.859375 L -0.640625 -9.046875 L 0 -9.046875 Z M 0 -1.03125 "/></g></g></g><g fill="#000000" fill-opacity="1"><g transform="translate(128.034258, 206.15293)"><g><path d="M 0 -1.03125 L -0.640625 -1.03125 L -0.78125 -3.21875 L -19.484375 -3.21875 L -19.625 -1.03125 L -20.265625 -1.03125 L -20.265625 -15.015625 L -14.484375 -15.15625 L -14.484375 -14.5625 C -15.128906 -14.445312 -15.675781 -14.328125 -16.125 -14.203125 C -16.570312 -14.078125 -17.019531 -13.894531 -17.46875 -13.65625 C -17.925781 -13.414062 -18.289062 -13.140625 -18.5625 -12.828125 C -18.832031 -12.515625 -19.050781 -12.109375 -19.21875 -11.609375 C -19.394531 -11.109375 -19.484375 -10.53125 -19.484375 -9.875 C -19.484375 -9.070312 -19.4375 -8.066406 -19.34375 -6.859375 L -10.90625 -6.859375 C -10.875 -7.140625 -10.859375 -7.65625 -10.859375 -8.40625 C -10.859375 -9.394531 -11.101562 -10.101562 -11.59375 -10.53125 C -12.082031 -10.957031 -12.96875 -11.171875 -14.25 -11.171875 L -14.25 -11.953125 L -6.625 -11.953125 L -6.625 -11.171875 C -7.914062 -11.171875 -8.8125 -10.953125 -9.3125 -10.515625 C -9.820312 -10.085938 -10.078125 -9.382812 -10.078125 -8.40625 C -10.078125 -7.675781 -10.0625 -7.160156 -10.03125 -6.859375 L -0.921875 -6.859375 C -0.828125 -8.066406 -0.78125 -9.269531 -0.78125 -10.46875 C -0.78125 -11.019531 -0.820312 -11.507812 -0.90625 -11.9375 C -1 -12.363281 -1.148438 -12.734375 -1.359375 -13.046875 C -1.566406 -13.359375 -1.800781 -13.625 -2.0625 -13.84375 C -2.320312 -14.0625 -2.65625 -14.253906 -3.0625 -14.421875 C -3.46875 -14.585938 -3.875 -14.722656 -4.28125 -14.828125 C -4.6875 -14.929688 -5.191406 -15.039062 -5.796875 -15.15625 L -5.796875 -15.765625 L 0 -15.609375 Z M 0 -1.03125 "/></g></g></g><g fill="#000000" fill-opacity="1"><g transform="translate(128.034258, 188.798387)"><g><path d="M -13.609375 -1.34375 L -20.265625 -1.78125 L -20.265625 -14.96875 L -19.515625 -14.96875 L -0.71875 -5.15625 L -0.640625 -10.5625 C -0.640625 -10.582031 -0.640625 -10.601562 -0.640625 -10.625 C -0.648438 -11.164062 -0.773438 -11.664062 -1.015625 -12.125 C -1.285156 -12.59375 -1.625 -12.976562 -2.03125 -13.28125 C -2.445312 -13.59375 -2.96875 -13.863281 -3.59375 -14.09375 C -4.226562 -14.320312 -4.847656 -14.5 -5.453125 -14.625 C -6.066406 -14.757812 -6.757812 -14.875 -7.53125 -14.96875 L -7.53125 -15.609375 L 0 -15.15625 L 0 -1.390625 L -0.78125 -1.390625 L -19.5625 -11.71875 L -19.484375 -6.921875 C -19.453125 -5.429688 -18.960938 -4.3125 -18.015625 -3.5625 C -17.078125 -2.8125 -15.609375 -2.285156 -13.609375 -1.984375 Z M -13.609375 -1.34375 "/></g></g></g></svg>