<svg xmlns="http://www.w3.org/2000/svg" xmlns:xlink="http://www.w3.org/1999/xlink" width="500" zoomAndPan="magnify" viewBox="0 0 375 374.999991" height="500" preserveAspectRatio="xMidYMid meet" version="1.0"><defs><clipPath id="id1"><path d="M 210 203.0625 L 337.78125 203.0625 L 337.78125 374.753906 L 210 374.753906 Z M 210 203.0625 " clip-rule="nonzero"/></clipPath><clipPath id="id2"><path d="M 134 0.230469 L 262.566406 0.230469 L 262.566406 374.753906 L 134 374.753906 Z M 134 0.230469 " clip-rule="nonzero"/></clipPath><clipPath id="id3"><path d="M 59.53125 124 L 187.226562 124 L 187.226562 374.753906 L 59.53125 374.753906 Z M 59.53125 124 " clip-rule="nonzero"/></clipPath><clipPath id="id4"><path d="M 92 103.699219 L 109.402344 103.699219 L 109.402344 176.449219 L 92 176.449219 Z M 92 103.699219 " clip-rule="nonzero"/></clipPath><clipPath id="id5"><path d="M 73 130 L 91 130 L 91 176.449219 L 73 176.449219 Z M 73 130 " clip-rule="nonzero"/></clipPath></defs><rect x="-37.5" width="450" fill="#ffffff" y="-37.499999" height="449.999989" fill-opacity="1"/><rect x="-37.5" width="450" fill="#ffffff" y="-37.499999" height="449.999989" fill-opacity="1"/><rect x="-37.5" width="450" fill="#ffffff" y="-37.499999" height="449.999989" fill-opacity="1"/><g clip-path="url(#id1)"><path fill="#1e202c" d="M 273.996094 203.769531 L 210.152344 268.925781 L 210.152344 344.34375 L 230.71875 344.34375 L 230.71875 277.304688 L 273.996094 233.136719 L 317.273438 277.304688 L 317.273438 354.210938 L 272.40625 354.210938 L 272.40625 374.753906 L 337.839844 374.753906 L 337.839844 268.925781 L 273.996094 203.769531 " fill-opacity="1" fill-rule="nonzero"/></g><g clip-path="url(#id2)"><path fill="#4c8b30" d="M 198.683594 0.226562 L 134.84375 65.378906 L 134.84375 344.34375 L 155.40625 344.34375 L 155.40625 73.761719 L 198.683594 29.597656 L 241.960938 73.761719 L 241.960938 222.351562 L 262.527344 201.363281 L 262.527344 65.378906 Z M 241.960938 354.210938 L 197.09375 354.210938 L 197.09375 374.753906 L 262.527344 374.753906 L 262.527344 258.949219 L 241.960938 279.933594 L 241.960938 354.210938 " fill-opacity="1" fill-rule="nonzero"/></g><g clip-path="url(#id3)"><path fill="#f1a208" d="M 165.285156 167.074219 L 165.285156 196.441406 L 166.652344 197.839844 L 166.652344 354.210938 L 80.097656 354.210938 L 80.097656 197.839844 L 123.375 153.671875 L 124.964844 155.296875 L 124.964844 125.925781 L 123.375 124.304688 L 59.53125 189.460938 L 59.53125 374.753906 L 187.21875 374.753906 L 187.21875 189.460938 L 165.285156 167.074219 " fill-opacity="1" fill-rule="nonzero"/></g><g clip-path="url(#id4)"><path fill="#f1a208" d="M 109.726562 176.332031 C 109.902344 176.332031 110.078125 176.328125 110.25 176.328125 L 110.25 104.71875 L 125.984375 116.082031 L 125.984375 177.300781 C 126.15625 177.324219 126.332031 177.34375 126.507812 177.367188 L 126.507812 115.816406 L 109.726562 103.695312 L 92.945312 115.816406 L 92.945312 177.523438 C 98.289062 176.769531 103.914062 176.355469 109.726562 176.332031 Z M 109.726562 176.332031 " fill-opacity="1" fill-rule="nonzero"/></g><g clip-path="url(#id5)"><path fill="#f1a208" d="M 90.058594 130.96875 L 73.277344 143.089844 L 73.277344 182.242188 C 78.371094 180.425781 84.015625 178.976562 90.058594 177.96875 Z M 90.058594 130.96875 " fill-opacity="1" fill-rule="nonzero"/></g><path stroke-linecap="butt" transform="matrix(8.853904, -8.309251, 8.027903, 8.554116, 105.456466, 180.221004)" fill="none" stroke-linejoin="miter" d="M -0.0000591388 0.000135687 L 0.988615 0.000170519 " stroke="#ffffff" stroke-width="1" stroke-opacity="1" stroke-miterlimit="4"/></svg>