<svg xmlns="http://www.w3.org/2000/svg" xmlns:xlink="http://www.w3.org/1999/xlink" width="500" zoomAndPan="magnify" viewBox="0 0 375 374.999991" height="500" preserveAspectRatio="xMidYMid meet" version="1.0"><defs><g/><clipPath id="id1"><path d="M 207 177 L 313.257812 177 L 313.257812 319.121094 L 207 319.121094 Z M 207 177 " clip-rule="nonzero"/></clipPath><clipPath id="id2"><path d="M 144 8.269531 L 250.820312 8.269531 L 250.820312 319.121094 L 144 319.121094 Z M 144 8.269531 " clip-rule="nonzero"/></clipPath><clipPath id="id3"><path d="M 82.257812 111 L 188.273438 111 L 188.273438 319.121094 L 82.257812 319.121094 Z M 82.257812 111 " clip-rule="nonzero"/></clipPath><clipPath id="id4"><path d="M 109 94.214844 L 123.90625 94.214844 L 123.90625 154.214844 L 109 154.214844 Z M 109 94.214844 " clip-rule="nonzero"/></clipPath><clipPath id="id5"><path d="M 93.15625 116 L 108 116 L 108 154.214844 L 93.15625 154.214844 Z M 93.15625 116 " clip-rule="nonzero"/></clipPath></defs><rect x="-37.5" width="450" fill="#000000" y="-37.499999" height="449.999989" fill-opacity="1"/><rect x="-37.5" width="450" fill="#ffffff" y="-37.499999" height="449.999989" fill-opacity="1"/><rect x="-37.5" width="450" fill="#000000" y="-37.499999" height="449.999989" fill-opacity="1"/><g clip-path="url(#id1)"><path fill="#f8f8f8" d="M 260.304688 177.203125 L 207.304688 231.28125 L 207.304688 293.878906 L 224.378906 293.878906 L 224.378906 238.238281 L 260.304688 201.578125 L 296.234375 238.238281 L 296.234375 302.066406 L 258.984375 302.066406 L 258.984375 319.121094 L 313.308594 319.121094 L 313.308594 231.28125 L 260.304688 177.203125 " fill-opacity="1" fill-rule="nonzero"/></g><g clip-path="url(#id2)"><path fill="#4c8b30" d="M 197.785156 8.265625 L 144.78125 62.339844 L 144.78125 293.878906 L 161.855469 293.878906 L 161.855469 69.296875 L 197.785156 32.640625 L 233.710938 69.296875 L 233.710938 192.628906 L 250.785156 175.207031 L 250.785156 62.339844 Z M 233.710938 302.066406 L 196.460938 302.066406 L 196.460938 319.121094 L 250.785156 319.121094 L 250.785156 223 L 233.710938 240.417969 L 233.710938 302.066406 " fill-opacity="1" fill-rule="nonzero"/></g><g clip-path="url(#id3)"><path fill="#f8f8f8" d="M 170.054688 146.746094 L 170.054688 171.121094 L 171.191406 172.28125 L 171.191406 302.066406 L 99.332031 302.066406 L 99.332031 172.28125 L 135.261719 135.621094 L 136.582031 136.96875 L 136.582031 112.59375 L 135.261719 111.25 L 82.257812 165.324219 L 82.257812 319.121094 L 188.261719 319.121094 L 188.261719 165.324219 L 170.054688 146.746094 " fill-opacity="1" fill-rule="nonzero"/></g><g clip-path="url(#id4)"><path fill="#f8f8f8" d="M 123.789062 154.742188 C 123.933594 154.742188 124.078125 154.738281 124.222656 154.738281 L 124.222656 95.0625 L 137.242188 104.535156 L 137.242188 155.550781 C 137.386719 155.566406 137.53125 155.585938 137.675781 155.605469 L 137.675781 104.3125 L 123.789062 94.210938 L 109.902344 104.3125 L 109.902344 155.734375 C 114.324219 155.105469 118.980469 154.761719 123.789062 154.742188 Z M 123.789062 154.742188 " fill-opacity="1" fill-rule="nonzero"/></g><g clip-path="url(#id5)"><path fill="#f8f8f8" d="M 107.515625 116.9375 L 93.628906 127.039062 L 93.628906 159.667969 C 97.84375 158.15625 102.511719 156.945312 107.515625 156.105469 Z M 107.515625 116.9375 " fill-opacity="1" fill-rule="nonzero"/></g><path stroke-linecap="butt" transform="matrix(7.041786, -6.608605, 6.802976, 7.248897, 120.473646, 157.848974)" fill="none" stroke-linejoin="miter" d="M 0.0000186053 -0.000164774 L 1.010749 -0.000188168 " stroke="#000000" stroke-width="1" stroke-opacity="1" stroke-miterlimit="4"/><g fill="#f8f8f8" fill-opacity="1"><g transform="translate(87.88949, 358.979557)"><g><path d="M 5.6875 0 C 5.164062 0 4.78125 -0.117188 4.53125 -0.359375 C 4.289062 -0.609375 4.171875 -0.992188 4.171875 -1.515625 L 4.171875 -30.59375 C 4.171875 -31.113281 4.289062 -31.492188 4.53125 -31.734375 C 4.78125 -31.972656 5.164062 -32.09375 5.6875 -32.09375 L 15.09375 -32.09375 C 19.488281 -32.09375 22.96875 -30.785156 25.53125 -28.171875 C 28.101562 -25.566406 29.390625 -21.523438 29.390625 -16.046875 C 29.390625 -10.578125 28.101562 -6.535156 25.53125 -3.921875 C 22.96875 -1.304688 19.488281 0 15.09375 0 Z M 14.859375 -4.21875 C 17.765625 -4.21875 20.070312 -5.1875 21.78125 -7.125 C 23.488281 -9.070312 24.34375 -12.046875 24.34375 -16.046875 C 24.34375 -20.054688 23.488281 -23.03125 21.78125 -24.96875 C 20.070312 -26.90625 17.765625 -27.875 14.859375 -27.875 L 9.078125 -27.875 L 9.078125 -4.21875 Z M 14.859375 -4.21875 "/></g></g></g><g fill="#f8f8f8" fill-opacity="1"><g transform="translate(123.29583, 358.979557)"><g><path d="M 6.1875 0.09375 C 4.78125 0.09375 4.078125 -0.289062 4.078125 -1.0625 L 4.078125 -30.59375 C 4.078125 -31.113281 4.195312 -31.492188 4.4375 -31.734375 C 4.6875 -31.972656 5.070312 -32.09375 5.59375 -32.09375 L 13.671875 -32.09375 C 17.398438 -32.09375 20.1875 -31.421875 22.03125 -30.078125 C 23.882812 -28.734375 24.8125 -26.65625 24.8125 -23.84375 C 24.8125 -21.976562 24.335938 -20.40625 23.390625 -19.125 C 22.441406 -17.84375 21.140625 -16.878906 19.484375 -16.234375 L 19.484375 -16.046875 C 20.285156 -15.773438 20.988281 -15.195312 21.59375 -14.3125 C 22.207031 -13.425781 22.804688 -12.234375 23.390625 -10.734375 L 27.109375 -1.421875 C 27.222656 -0.992188 27.28125 -0.75 27.28125 -0.6875 C 27.28125 -0.164062 26.546875 0.09375 25.078125 0.09375 L 24.21875 0.09375 C 23.695312 0.09375 23.25 0.0234375 22.875 -0.109375 C 22.507812 -0.253906 22.269531 -0.445312 22.15625 -0.6875 L 18.625 -9.671875 C 18.007812 -11.203125 17.257812 -12.25 16.375 -12.8125 C 15.488281 -13.382812 14.171875 -13.671875 12.421875 -13.671875 L 8.984375 -13.671875 L 8.984375 -1.0625 C 8.984375 -0.289062 8.28125 0.09375 6.875 0.09375 Z M 14.53125 -17.9375 C 15.96875 -17.9375 17.195312 -18.4375 18.21875 -19.4375 C 19.25 -20.445312 19.765625 -21.65625 19.765625 -23.0625 C 19.765625 -24.65625 19.265625 -25.851562 18.265625 -26.65625 C 17.273438 -27.46875 15.925781 -27.875 14.21875 -27.875 L 8.984375 -27.875 L 8.984375 -17.9375 Z M 14.53125 -17.9375 "/></g></g></g><g fill="#f8f8f8" fill-opacity="1"><g transform="translate(154.803844, 358.979557)"><g><path d="M 12.46875 0.09375 C 11.0625 0.09375 10.359375 -0.289062 10.359375 -1.0625 L 10.359375 -16.140625 L 0.921875 -30.453125 C 0.640625 -30.816406 0.5 -31.125 0.5 -31.375 C 0.5 -31.914062 1.28125 -32.1875 2.84375 -32.1875 L 3.8125 -32.1875 C 4.382812 -32.1875 4.835938 -32.132812 5.171875 -32.03125 C 5.515625 -31.925781 5.78125 -31.734375 5.96875 -31.453125 L 12.9375 -20.59375 L 20.046875 -31.5 C 20.347656 -31.957031 21.109375 -32.1875 22.328125 -32.1875 L 23.015625 -32.1875 C 24.421875 -32.15625 25.125 -31.882812 25.125 -31.375 C 25.125 -31.15625 25.003906 -30.847656 24.765625 -30.453125 L 15.265625 -16 L 15.265625 -1.0625 C 15.265625 -0.289062 14.5625 0.09375 13.15625 0.09375 Z M 12.46875 0.09375 "/></g></g></g><g fill="#f8f8f8" fill-opacity="1"><g transform="translate(183.972873, 358.979557)"><g><path d="M 10.265625 0.09375 C 9.078125 0.09375 8.390625 -0.164062 8.203125 -0.6875 L 0.546875 -30.640625 C 0.484375 -30.941406 0.453125 -31.15625 0.453125 -31.28125 C 0.453125 -31.882812 1.1875 -32.1875 2.65625 -32.1875 L 3.34375 -32.1875 C 4.65625 -32.1875 5.375 -31.882812 5.5 -31.28125 L 10.640625 -10.953125 C 10.910156 -9.921875 11.15625 -8.734375 11.375 -7.390625 L 11.640625 -6 C 11.765625 -6.582031 12.039062 -7.71875 12.46875 -9.40625 L 12.890625 -11.046875 L 17.9375 -31.375 C 18.050781 -31.914062 18.707031 -32.1875 19.90625 -32.1875 L 20.953125 -32.1875 C 22.148438 -32.1875 22.804688 -31.914062 22.921875 -31.375 L 28.015625 -10.921875 C 28.203125 -10.148438 28.539062 -8.484375 29.03125 -5.921875 L 30.265625 -11 L 35.265625 -31.28125 C 35.390625 -31.882812 36.125 -32.1875 37.46875 -32.1875 L 37.78125 -32.1875 C 39.25 -32.1875 39.984375 -31.882812 39.984375 -31.28125 L 39.890625 -30.640625 L 32.09375 -0.6875 C 31.976562 -0.164062 31.289062 0.09375 30.03125 0.09375 L 27.75 0.09375 C 27.195312 0.09375 26.734375 0.03125 26.359375 -0.09375 C 25.992188 -0.21875 25.785156 -0.414062 25.734375 -0.6875 L 21.09375 -18.578125 L 20.171875 -23.703125 L 19.265625 -18.578125 L 14.578125 -0.6875 C 14.515625 -0.414062 14.300781 -0.21875 13.9375 -0.09375 C 13.570312 0.03125 13.113281 0.09375 12.5625 0.09375 Z M 10.265625 0.09375 "/></g></g></g><g fill="#f8f8f8" fill-opacity="1"><g transform="translate(227.955511, 358.979557)"><g><path d="M 2.609375 0.09375 C 1.140625 0.09375 0.40625 -0.179688 0.40625 -0.734375 C 0.40625 -0.921875 0.453125 -1.164062 0.546875 -1.46875 L 11.1875 -31.40625 C 11.375 -31.925781 12.0625 -32.1875 13.25 -32.1875 L 14.859375 -32.1875 C 16.046875 -32.1875 16.734375 -31.925781 16.921875 -31.40625 L 27.5625 -1.421875 C 27.65625 -1.148438 27.703125 -0.921875 27.703125 -0.734375 C 27.703125 -0.179688 27.015625 0.09375 25.640625 0.09375 L 24.8125 0.09375 C 23.644531 0.09375 22.957031 -0.164062 22.75 -0.6875 L 20.3125 -7.65625 L 7.609375 -7.65625 L 5.234375 -0.6875 C 5.015625 -0.164062 4.367188 0.09375 3.296875 0.09375 Z M 18.84375 -11.875 L 14.671875 -23.984375 C 14.546875 -24.410156 14.429688 -24.914062 14.328125 -25.5 C 14.222656 -26.082031 14.140625 -26.492188 14.078125 -26.734375 L 13.984375 -26.734375 C 13.742188 -25.453125 13.515625 -24.535156 13.296875 -23.984375 L 9.078125 -11.875 Z M 18.84375 -11.875 "/></g></g></g><g fill="#f8f8f8" fill-opacity="1"><g transform="translate(259.601117, 358.979557)"><g><path d="M 5.6875 0 C 5.164062 0 4.78125 -0.117188 4.53125 -0.359375 C 4.289062 -0.609375 4.171875 -0.992188 4.171875 -1.515625 L 4.171875 -31.046875 C 4.171875 -31.804688 4.875 -32.1875 6.28125 -32.1875 L 6.96875 -32.1875 C 8.375 -32.1875 9.078125 -31.804688 9.078125 -31.046875 L 9.078125 -4.21875 L 20.90625 -4.21875 C 21.28125 -4.21875 21.550781 -4.085938 21.71875 -3.828125 C 21.882812 -3.566406 21.96875 -3.144531 21.96875 -2.5625 L 21.96875 -1.65625 C 21.96875 -1.070312 21.882812 -0.648438 21.71875 -0.390625 C 21.550781 -0.128906 21.28125 0 20.90625 0 Z M 5.6875 0 "/></g></g></g><g fill="#f8f8f8" fill-opacity="1"><g transform="translate(285.330446, 358.979557)"><g><path d="M 5.6875 0 C 5.164062 0 4.78125 -0.117188 4.53125 -0.359375 C 4.289062 -0.609375 4.171875 -0.992188 4.171875 -1.515625 L 4.171875 -31.046875 C 4.171875 -31.804688 4.875 -32.1875 6.28125 -32.1875 L 6.96875 -32.1875 C 8.375 -32.1875 9.078125 -31.804688 9.078125 -31.046875 L 9.078125 -4.21875 L 20.90625 -4.21875 C 21.28125 -4.21875 21.550781 -4.085938 21.71875 -3.828125 C 21.882812 -3.566406 21.96875 -3.144531 21.96875 -2.5625 L 21.96875 -1.65625 C 21.96875 -1.070312 21.882812 -0.648438 21.71875 -0.390625 C 21.550781 -0.128906 21.28125 0 20.90625 0 Z M 5.6875 0 "/></g></g></g><g fill="#f8f8f8" fill-opacity="1"><g transform="translate(140.153358, 291.184391)"><g><path d="M -19.265625 -7.875 C -19.265625 -7.21875 -19.1875 -6.640625 -19.03125 -6.140625 C -18.875 -5.640625 -18.65625 -5.21875 -18.375 -4.875 C -18.09375 -4.539062 -17.753906 -4.289062 -17.359375 -4.125 C -16.960938 -3.957031 -16.523438 -3.875 -16.046875 -3.875 C -15.710938 -3.875 -15.378906 -3.921875 -15.046875 -4.015625 C -14.722656 -4.109375 -14.390625 -4.300781 -14.046875 -4.59375 C -13.703125 -4.894531 -13.347656 -5.332031 -12.984375 -5.90625 C -12.617188 -6.476562 -12.226562 -7.25 -11.8125 -8.21875 C -11.289062 -9.332031 -10.804688 -10.273438 -10.359375 -11.046875 C -9.921875 -11.816406 -9.445312 -12.441406 -8.9375 -12.921875 C -8.4375 -13.410156 -7.875 -13.757812 -7.25 -13.96875 C -6.625 -14.1875 -5.878906 -14.296875 -5.015625 -14.296875 C -4.359375 -14.296875 -3.695312 -14.160156 -3.03125 -13.890625 C -2.375 -13.628906 -1.785156 -13.234375 -1.265625 -12.703125 C -0.753906 -12.171875 -0.332031 -11.5 0 -10.6875 C 0.320312 -9.882812 0.484375 -8.9375 0.484375 -7.84375 C 0.484375 -6.644531 0.367188 -5.632812 0.140625 -4.8125 C -0.078125 -3.988281 -0.363281 -3.328125 -0.71875 -2.828125 C -1.082031 -2.328125 -1.488281 -1.96875 -1.9375 -1.75 C -2.382812 -1.53125 -2.835938 -1.421875 -3.296875 -1.421875 C -3.597656 -1.421875 -3.878906 -1.46875 -4.140625 -1.5625 C -4.398438 -1.65625 -4.628906 -1.789062 -4.828125 -1.96875 C -5.023438 -2.144531 -5.179688 -2.363281 -5.296875 -2.625 C -5.410156 -2.882812 -5.46875 -3.175781 -5.46875 -3.5 C -5.46875 -3.800781 -5.414062 -4.078125 -5.3125 -4.328125 C -5.207031 -4.578125 -5.0625 -4.785156 -4.875 -4.953125 C -4.695312 -5.117188 -4.488281 -5.25 -4.25 -5.34375 C -4.007812 -5.4375 -3.75 -5.484375 -3.46875 -5.484375 C -2.820312 -5.484375 -2.332031 -5.296875 -2 -4.921875 C -1.664062 -4.554688 -1.5 -4.078125 -1.5 -3.484375 L -1.453125 -3.484375 C -1.378906 -3.546875 -1.273438 -3.671875 -1.140625 -3.859375 C -1.015625 -4.046875 -0.890625 -4.304688 -0.765625 -4.640625 C -0.640625 -4.972656 -0.523438 -5.378906 -0.421875 -5.859375 C -0.328125 -6.347656 -0.28125 -6.925781 -0.28125 -7.59375 C -0.28125 -8.144531 -0.351562 -8.691406 -0.5 -9.234375 C -0.644531 -9.773438 -0.851562 -10.257812 -1.125 -10.6875 C -1.40625 -11.113281 -1.738281 -11.457031 -2.125 -11.71875 C -2.519531 -11.988281 -2.96875 -12.125 -3.46875 -12.125 C -3.882812 -12.125 -4.273438 -12.046875 -4.640625 -11.890625 C -5.003906 -11.734375 -5.375 -11.4375 -5.75 -11 C -6.132812 -10.570312 -6.539062 -9.976562 -6.96875 -9.21875 C -7.40625 -8.457031 -7.898438 -7.46875 -8.453125 -6.25 C -8.835938 -5.34375 -9.257812 -4.597656 -9.71875 -4.015625 C -10.175781 -3.441406 -10.660156 -2.988281 -11.171875 -2.65625 C -11.691406 -2.320312 -12.234375 -2.085938 -12.796875 -1.953125 C -13.359375 -1.828125 -13.9375 -1.765625 -14.53125 -1.765625 C -15.28125 -1.765625 -15.988281 -1.898438 -16.65625 -2.171875 C -17.320312 -2.453125 -17.898438 -2.851562 -18.390625 -3.375 C -18.890625 -3.894531 -19.285156 -4.535156 -19.578125 -5.296875 C -19.867188 -6.054688 -20.015625 -6.925781 -20.015625 -7.90625 C -20.015625 -8.84375 -19.90625 -9.660156 -19.6875 -10.359375 C -19.46875 -11.054688 -19.175781 -11.632812 -18.8125 -12.09375 C -18.457031 -12.550781 -18.039062 -12.894531 -17.5625 -13.125 C -17.082031 -13.351562 -16.582031 -13.46875 -16.0625 -13.46875 C -15.789062 -13.46875 -15.53125 -13.421875 -15.28125 -13.328125 C -15.03125 -13.234375 -14.8125 -13.097656 -14.625 -12.921875 C -14.4375 -12.753906 -14.285156 -12.539062 -14.171875 -12.28125 C -14.054688 -12.03125 -14 -11.738281 -14 -11.40625 C -14 -11.101562 -14.046875 -10.828125 -14.140625 -10.578125 C -14.242188 -10.335938 -14.378906 -10.128906 -14.546875 -9.953125 C -14.722656 -9.773438 -14.929688 -9.632812 -15.171875 -9.53125 C -15.410156 -9.4375 -15.671875 -9.390625 -15.953125 -9.390625 C -16.273438 -9.390625 -16.5625 -9.441406 -16.8125 -9.546875 C -17.0625 -9.660156 -17.269531 -9.8125 -17.4375 -10 C -17.601562 -10.1875 -17.726562 -10.40625 -17.8125 -10.65625 C -17.90625 -10.914062 -17.953125 -11.191406 -17.953125 -11.484375 L -18.015625 -11.484375 C -18.078125 -11.429688 -18.175781 -11.320312 -18.3125 -11.15625 C -18.457031 -11 -18.597656 -10.769531 -18.734375 -10.46875 C -18.878906 -10.175781 -19.003906 -9.816406 -19.109375 -9.390625 C -19.210938 -8.960938 -19.265625 -8.457031 -19.265625 -7.875 Z M -19.265625 -7.875 "/></g></g></g><g fill="#f8f8f8" fill-opacity="1"><g transform="translate(140.153358, 275.67984)"><g><path d="M 0 0.078125 L -0.609375 0.078125 L -0.75 -1.578125 L -20.109375 -8.046875 L -20.109375 -8.671875 L -0.75 -15.359375 L -0.609375 -17.171875 L 0 -17.171875 L 0 -9.84375 L -0.609375 -9.84375 L -0.75 -11.703125 L -5.671875 -10.078125 L -5.671875 -3.9375 L -0.75 -2.359375 L -0.609375 -4.203125 L 0 -4.203125 Z M -6.484375 -4.1875 L -6.59375 -9.78125 L -15.015625 -7.046875 L -15.015625 -6.984375 Z M -6.484375 -4.1875 "/></g></g></g><g fill="#f8f8f8" fill-opacity="1"><g transform="translate(140.153358, 258.573203)"><g><path d="M -18.921875 -0.9375 L -19.546875 -0.9375 L -19.546875 -3.875 L -5.296875 -15.625 L -5.296875 -15.65625 L -18.796875 -15.46875 L -18.921875 -13.359375 L -19.546875 -13.359375 L -19.546875 -18.4375 L -18.921875 -18.4375 L -18.796875 -16.328125 L 0.28125 -16.46875 L 0.28125 -15.640625 L -14.015625 -3.890625 L -14.015625 -3.859375 L -0.75 -4.046875 L -0.609375 -6.15625 L 0 -6.15625 L 0 -1.078125 L -0.609375 -1.078125 L -0.75 -3.1875 L -18.796875 -3.046875 Z M -18.921875 -0.9375 "/></g></g></g><g fill="#f8f8f8" fill-opacity="1"><g transform="translate(140.153358, 239.042898)"><g><path d="M -9.421875 -1.34375 C -10.429688 -1.34375 -11.429688 -1.453125 -12.421875 -1.671875 C -13.410156 -1.890625 -14.363281 -2.238281 -15.28125 -2.71875 C -16.207031 -3.195312 -17.019531 -3.78125 -17.71875 -4.46875 C -18.414062 -5.164062 -18.972656 -6.023438 -19.390625 -7.046875 C -19.804688 -8.078125 -20.015625 -9.203125 -20.015625 -10.421875 C -20.015625 -11.847656 -19.625 -13.101562 -18.84375 -14.1875 C -18.070312 -15.269531 -17.148438 -15.8125 -16.078125 -15.8125 C -15.535156 -15.8125 -15.070312 -15.640625 -14.6875 -15.296875 C -14.3125 -14.960938 -14.125 -14.5 -14.125 -13.90625 C -14.125 -13.332031 -14.296875 -12.867188 -14.640625 -12.515625 C -14.992188 -12.160156 -15.441406 -11.984375 -15.984375 -11.984375 C -16.515625 -11.984375 -16.957031 -12.148438 -17.3125 -12.484375 C -17.675781 -12.828125 -17.859375 -13.25 -17.859375 -13.75 C -17.859375 -13.851562 -17.851562 -13.925781 -17.84375 -13.96875 L -17.90625 -13.96875 C -18.15625 -13.832031 -18.4375 -13.460938 -18.75 -12.859375 C -19.070312 -12.253906 -19.234375 -11.53125 -19.234375 -10.6875 C -19.234375 -9.019531 -18.367188 -7.648438 -16.640625 -6.578125 C -14.921875 -5.515625 -12.644531 -4.984375 -9.8125 -4.984375 C -8.601562 -4.984375 -7.457031 -5.085938 -6.375 -5.296875 C -5.289062 -5.503906 -4.304688 -5.816406 -3.421875 -6.234375 C -2.535156 -6.648438 -1.828125 -7.207031 -1.296875 -7.90625 C -0.773438 -8.613281 -0.515625 -9.421875 -0.515625 -10.328125 C -0.515625 -11.617188 -0.898438 -12.742188 -1.671875 -13.703125 C -2.441406 -14.671875 -3.429688 -15.421875 -4.640625 -15.953125 L -4.34375 -16.59375 C -1.125 -15.289062 0.484375 -13.097656 0.484375 -10.015625 C 0.484375 -8.671875 0.296875 -7.484375 -0.078125 -6.453125 C -0.453125 -5.421875 -0.945312 -4.585938 -1.5625 -3.953125 C -2.1875 -3.316406 -2.9375 -2.796875 -3.8125 -2.390625 C -4.6875 -1.992188 -5.570312 -1.71875 -6.46875 -1.5625 C -7.375 -1.414062 -8.359375 -1.34375 -9.421875 -1.34375 Z M -9.421875 -1.34375 "/></g></g></g><g fill="#f8f8f8" fill-opacity="1"><g transform="translate(140.153358, 221.717173)"><g><path d="M 0 -1 L -0.609375 -1 L -0.75 -3.109375 L -18.796875 -3.109375 L -18.921875 -1 L -19.546875 -1 L -19.546875 -8.71875 L -18.921875 -8.71875 L -18.796875 -6.609375 L -10.4375 -6.609375 L -10.546875 -13.984375 L -18.796875 -13.984375 L -18.921875 -11.875 L -19.546875 -11.875 L -19.546875 -19.59375 L -18.921875 -19.59375 L -18.796875 -17.484375 L -0.75 -17.484375 L -0.609375 -19.59375 L 0 -19.59375 L 0 -11.875 L -0.609375 -11.875 L -0.75 -13.984375 L -9.609375 -13.984375 L -9.609375 -6.609375 L -0.75 -6.609375 L -0.609375 -8.71875 L 0 -8.71875 Z M 0 -1 "/></g></g></g><g fill="#f8f8f8" fill-opacity="1"><g transform="translate(140.153358, 200.954496)"><g><path d="M 0 -1 L -0.609375 -1 L -0.75 -3.109375 L -18.796875 -3.109375 L -18.921875 -1 L -19.546875 -1 L -19.546875 -14.484375 L -13.96875 -14.625 L -13.96875 -14.046875 C -14.59375 -13.941406 -15.117188 -13.828125 -15.546875 -13.703125 C -15.984375 -13.578125 -16.421875 -13.398438 -16.859375 -13.171875 C -17.296875 -12.941406 -17.644531 -12.675781 -17.90625 -12.375 C -18.164062 -12.070312 -18.378906 -11.675781 -18.546875 -11.1875 C -18.710938 -10.707031 -18.796875 -10.15625 -18.796875 -9.53125 C -18.796875 -8.757812 -18.75 -7.785156 -18.65625 -6.609375 L -10.515625 -6.609375 C -10.484375 -6.890625 -10.46875 -7.390625 -10.46875 -8.109375 C -10.46875 -9.066406 -10.703125 -9.75 -11.171875 -10.15625 C -11.648438 -10.570312 -12.507812 -10.78125 -13.75 -10.78125 L -13.75 -11.53125 L -6.390625 -11.53125 L -6.390625 -10.78125 C -7.640625 -10.78125 -8.503906 -10.570312 -8.984375 -10.15625 C -9.472656 -9.738281 -9.71875 -9.054688 -9.71875 -8.109375 C -9.71875 -7.398438 -9.707031 -6.898438 -9.6875 -6.609375 L -0.890625 -6.609375 C -0.796875 -7.785156 -0.75 -8.945312 -0.75 -10.09375 C -0.75 -10.632812 -0.789062 -11.109375 -0.875 -11.515625 C -0.96875 -11.929688 -1.113281 -12.285156 -1.3125 -12.578125 C -1.507812 -12.878906 -1.734375 -13.132812 -1.984375 -13.34375 C -2.242188 -13.5625 -2.566406 -13.75 -2.953125 -13.90625 C -3.347656 -14.0625 -3.738281 -14.191406 -4.125 -14.296875 C -4.519531 -14.398438 -5.007812 -14.503906 -5.59375 -14.609375 L -5.59375 -15.203125 L 0 -15.046875 Z M 0 -1 "/></g></g></g><g fill="#f8f8f8" fill-opacity="1"><g transform="translate(140.153358, 184.21757)"><g><path d="M -13.125 -1.296875 L -19.546875 -1.71875 L -19.546875 -14.4375 L -18.8125 -14.4375 L -0.703125 -4.96875 L -0.609375 -10.1875 C -0.609375 -10.207031 -0.609375 -10.226562 -0.609375 -10.25 C -0.617188 -10.769531 -0.742188 -11.253906 -0.984375 -11.703125 C -1.242188 -12.140625 -1.570312 -12.503906 -1.96875 -12.796875 C -2.363281 -13.097656 -2.863281 -13.359375 -3.46875 -13.578125 C -4.070312 -13.804688 -4.671875 -13.984375 -5.265625 -14.109375 C -5.859375 -14.234375 -6.523438 -14.34375 -7.265625 -14.4375 L -7.265625 -15.046875 L 0 -14.625 L 0 -1.34375 L -0.75 -1.34375 L -18.875 -11.296875 L -18.796875 -6.6875 C -18.765625 -5.238281 -18.289062 -4.15625 -17.375 -3.4375 C -16.46875 -2.71875 -15.050781 -2.210938 -13.125 -1.921875 Z M -13.125 -1.296875 "/></g></g></g></svg>