<svg xmlns="http://www.w3.org/2000/svg" xmlns:xlink="http://www.w3.org/1999/xlink" width="500" zoomAndPan="magnify" viewBox="0 0 375 374.999991" height="500" preserveAspectRatio="xMidYMid meet" version="1.0"><defs><g/><clipPath id="id1"><path d="M 197.070312 175.203125 L 278.6875 175.203125 L 278.6875 284.058594 L 197.070312 284.058594 Z M 197.070312 175.203125 " clip-rule="nonzero"/></clipPath><clipPath id="id2"><path d="M 150 46.605469 L 231.042969 46.605469 L 231.042969 284.058594 L 150 284.058594 Z M 150 46.605469 " clip-rule="nonzero"/></clipPath><clipPath id="id3"><path d="M 102.4375 125.058594 L 183.320312 125.058594 L 183.320312 284.058594 L 102.4375 284.058594 Z M 102.4375 125.058594 " clip-rule="nonzero"/></clipPath><clipPath id="id4"><path d="M 123 112.121094 L 133.992188 112.121094 L 133.992188 157.871094 L 123 157.871094 Z M 123 112.121094 " clip-rule="nonzero"/></clipPath><clipPath id="id5"><path d="M 111 129 L 122 129 L 122 157.871094 L 111 157.871094 Z M 111 129 " clip-rule="nonzero"/></clipPath></defs><rect x="-37.5" width="450" fill="#ffffff" y="-37.499999" height="449.999989" fill-opacity="1"/><rect x="-37.5" width="450" fill="#ffffff" y="-37.499999" height="449.999989" fill-opacity="1"/><rect x="-37.5" width="450" fill="#ffffff" y="-37.499999" height="449.999989" fill-opacity="1"/><g clip-path="url(#id1)"><path fill="#000000" d="M 238.28125 175.652344 L 197.84375 216.960938 L 197.84375 264.777344 L 210.871094 264.777344 L 210.871094 222.277344 L 238.28125 194.273438 L 265.695312 222.277344 L 265.695312 271.035156 L 237.273438 271.035156 L 237.273438 284.058594 L 278.722656 284.058594 L 278.722656 216.960938 L 238.28125 175.652344 " fill-opacity="1" fill-rule="nonzero"/></g><g clip-path="url(#id2)"><path fill="#000000" d="M 190.578125 46.605469 L 150.140625 87.914062 L 150.140625 264.777344 L 163.167969 264.777344 L 163.167969 93.226562 L 190.578125 65.226562 L 217.992188 93.226562 L 217.992188 187.433594 L 231.019531 174.128906 L 231.019531 87.914062 Z M 217.992188 271.035156 L 189.570312 271.035156 L 189.570312 284.058594 L 231.019531 284.058594 L 231.019531 210.636719 L 217.992188 223.941406 L 217.992188 271.035156 " fill-opacity="1" fill-rule="nonzero"/></g><g clip-path="url(#id3)"><path fill="#000000" d="M 169.421875 152.386719 L 169.421875 171.007812 L 170.289062 171.894531 L 170.289062 271.035156 L 115.460938 271.035156 L 115.460938 171.894531 L 142.875 143.890625 L 143.882812 144.917969 L 143.882812 126.296875 L 142.875 125.273438 L 102.4375 166.578125 L 102.4375 284.058594 L 183.316406 284.058594 L 183.316406 166.578125 L 169.421875 152.386719 " fill-opacity="1" fill-rule="nonzero"/></g><g clip-path="url(#id4)"><path fill="#000000" d="M 134.289062 158.234375 C 134.398438 158.234375 134.511719 158.234375 134.621094 158.234375 L 134.621094 112.765625 L 144.601562 119.980469 L 144.601562 158.851562 C 144.710938 158.863281 144.824219 158.878906 144.933594 158.894531 L 144.933594 119.8125 L 134.289062 112.117188 L 123.640625 119.8125 L 123.640625 158.992188 C 127.035156 158.515625 130.601562 158.25 134.289062 158.234375 Z M 134.289062 158.234375 " fill-opacity="1" fill-rule="nonzero"/></g><g clip-path="url(#id5)"><path fill="#000000" d="M 121.8125 129.433594 L 111.164062 137.128906 L 111.164062 161.988281 C 114.398438 160.835938 117.976562 159.914062 121.8125 159.273438 Z M 121.8125 129.433594 " fill-opacity="1" fill-rule="nonzero"/></g><path stroke-linecap="butt" transform="matrix(5.468842, -5.132422, 5.280949, 5.627104, 131.610025, 160.672547)" fill="none" stroke-linejoin="miter" d="M -0.00000184239 -0.000121111 L 1.001497 -0.000211575 " stroke="#ffffff" stroke-width="1" stroke-opacity="1" stroke-miterlimit="4"/><g fill="#000000" fill-opacity="1"><g transform="translate(106.728882, 312.842609)"><g><path d="M 4.328125 0 C 3.929688 0 3.640625 -0.09375 3.453125 -0.28125 C 3.273438 -0.46875 3.1875 -0.757812 3.1875 -1.15625 L 3.1875 -23.3125 C 3.1875 -23.707031 3.273438 -24 3.453125 -24.1875 C 3.640625 -24.375 3.929688 -24.46875 4.328125 -24.46875 L 11.5 -24.46875 C 14.851562 -24.46875 17.507812 -23.46875 19.46875 -21.46875 C 21.425781 -19.476562 22.40625 -16.398438 22.40625 -12.234375 C 22.40625 -8.066406 21.425781 -4.984375 19.46875 -2.984375 C 17.507812 -0.992188 14.851562 0 11.5 0 Z M 11.328125 -3.21875 C 13.535156 -3.21875 15.289062 -3.957031 16.59375 -5.4375 C 17.90625 -6.914062 18.5625 -9.179688 18.5625 -12.234375 C 18.5625 -15.285156 17.90625 -17.550781 16.59375 -19.03125 C 15.289062 -20.507812 13.535156 -21.25 11.328125 -21.25 L 6.921875 -21.25 L 6.921875 -3.21875 Z M 11.328125 -3.21875 "/></g></g></g><g fill="#000000" fill-opacity="1"><g transform="translate(133.711982, 312.842609)"><g><path d="M 4.71875 0.0625 C 3.644531 0.0625 3.109375 -0.222656 3.109375 -0.796875 L 3.109375 -23.3125 C 3.109375 -23.707031 3.203125 -24 3.390625 -24.1875 C 3.578125 -24.375 3.867188 -24.46875 4.265625 -24.46875 L 10.421875 -24.46875 C 13.265625 -24.46875 15.390625 -23.953125 16.796875 -22.921875 C 18.203125 -21.898438 18.90625 -20.316406 18.90625 -18.171875 C 18.90625 -16.753906 18.546875 -15.554688 17.828125 -14.578125 C 17.109375 -13.597656 16.117188 -12.863281 14.859375 -12.375 L 14.859375 -12.234375 C 15.460938 -12.023438 15.992188 -11.582031 16.453125 -10.90625 C 16.921875 -10.226562 17.378906 -9.316406 17.828125 -8.171875 L 20.65625 -1.078125 C 20.75 -0.753906 20.796875 -0.570312 20.796875 -0.53125 C 20.796875 -0.132812 20.238281 0.0625 19.125 0.0625 L 18.453125 0.0625 C 18.054688 0.0625 17.71875 0.0078125 17.4375 -0.09375 C 17.15625 -0.195312 16.96875 -0.34375 16.875 -0.53125 L 14.1875 -7.375 C 13.71875 -8.539062 13.144531 -9.335938 12.46875 -9.765625 C 11.800781 -10.203125 10.800781 -10.421875 9.46875 -10.421875 L 6.84375 -10.421875 L 6.84375 -0.796875 C 6.84375 -0.222656 6.3125 0.0625 5.25 0.0625 Z M 11.078125 -13.671875 C 12.171875 -13.671875 13.109375 -14.050781 13.890625 -14.8125 C 14.671875 -15.582031 15.0625 -16.503906 15.0625 -17.578125 C 15.0625 -18.796875 14.679688 -19.710938 13.921875 -20.328125 C 13.171875 -20.941406 12.140625 -21.25 10.828125 -21.25 L 6.84375 -21.25 L 6.84375 -13.671875 Z M 11.078125 -13.671875 "/></g></g></g><g fill="#000000" fill-opacity="1"><g transform="translate(157.724234, 312.842609)"><g><path d="M 9.5 0.0625 C 8.4375 0.0625 7.90625 -0.222656 7.90625 -0.796875 L 7.90625 -12.296875 L 0.703125 -23.203125 C 0.492188 -23.484375 0.390625 -23.71875 0.390625 -23.90625 C 0.390625 -24.320312 0.984375 -24.53125 2.171875 -24.53125 L 2.90625 -24.53125 C 3.34375 -24.53125 3.6875 -24.488281 3.9375 -24.40625 C 4.195312 -24.332031 4.398438 -24.191406 4.546875 -23.984375 L 9.859375 -15.6875 L 15.28125 -24.015625 C 15.507812 -24.359375 16.085938 -24.53125 17.015625 -24.53125 L 17.546875 -24.53125 C 18.617188 -24.507812 19.15625 -24.300781 19.15625 -23.90625 C 19.15625 -23.738281 19.0625 -23.503906 18.875 -23.203125 L 11.640625 -12.203125 L 11.640625 -0.796875 C 11.640625 -0.222656 11.101562 0.0625 10.03125 0.0625 Z M 9.5 0.0625 "/></g></g></g><g fill="#000000" fill-opacity="1"><g transform="translate(179.95396, 312.842609)"><g><path d="M 7.828125 0.0625 C 6.921875 0.0625 6.394531 -0.132812 6.25 -0.53125 L 0.421875 -23.34375 C 0.367188 -23.582031 0.34375 -23.75 0.34375 -23.84375 C 0.34375 -24.300781 0.90625 -24.53125 2.03125 -24.53125 L 2.546875 -24.53125 C 3.546875 -24.53125 4.09375 -24.300781 4.1875 -23.84375 L 8.109375 -8.359375 C 8.316406 -7.566406 8.503906 -6.65625 8.671875 -5.625 L 8.875 -4.578125 C 8.96875 -5.023438 9.175781 -5.890625 9.5 -7.171875 L 9.828125 -8.421875 L 13.671875 -23.90625 C 13.765625 -24.320312 14.265625 -24.53125 15.171875 -24.53125 L 15.96875 -24.53125 C 16.882812 -24.53125 17.382812 -24.320312 17.46875 -23.90625 L 21.359375 -8.3125 C 21.492188 -7.726562 21.75 -6.460938 22.125 -4.515625 L 23.0625 -8.390625 L 26.875 -23.84375 C 26.96875 -24.300781 27.53125 -24.53125 28.5625 -24.53125 L 28.796875 -24.53125 C 29.921875 -24.53125 30.484375 -24.300781 30.484375 -23.84375 L 30.40625 -23.34375 L 24.46875 -0.53125 C 24.375 -0.132812 23.847656 0.0625 22.890625 0.0625 L 21.140625 0.0625 C 20.722656 0.0625 20.375 0.0195312 20.09375 -0.0625 C 19.8125 -0.15625 19.648438 -0.3125 19.609375 -0.53125 L 16.078125 -14.15625 L 15.375 -18.078125 L 14.6875 -14.15625 L 11.109375 -0.53125 C 11.066406 -0.3125 10.90625 -0.15625 10.625 -0.0625 C 10.34375 0.0195312 9.992188 0.0625 9.578125 0.0625 Z M 7.828125 0.0625 "/></g></g></g><g fill="#000000" fill-opacity="1"><g transform="translate(213.472934, 312.842609)"><g><path d="M 2 0.0625 C 0.875 0.0625 0.3125 -0.144531 0.3125 -0.5625 C 0.3125 -0.695312 0.347656 -0.882812 0.421875 -1.125 L 8.53125 -23.9375 C 8.664062 -24.332031 9.1875 -24.53125 10.09375 -24.53125 L 11.328125 -24.53125 C 12.234375 -24.53125 12.753906 -24.332031 12.890625 -23.9375 L 21 -1.078125 C 21.070312 -0.867188 21.109375 -0.695312 21.109375 -0.5625 C 21.109375 -0.144531 20.582031 0.0625 19.53125 0.0625 L 18.90625 0.0625 C 18.019531 0.0625 17.5 -0.132812 17.34375 -0.53125 L 15.484375 -5.84375 L 5.796875 -5.84375 L 3.984375 -0.53125 C 3.816406 -0.132812 3.328125 0.0625 2.515625 0.0625 Z M 14.359375 -9.046875 L 11.1875 -18.28125 C 11.09375 -18.601562 11.003906 -18.984375 10.921875 -19.421875 C 10.835938 -19.867188 10.773438 -20.1875 10.734375 -20.375 L 10.65625 -20.375 C 10.46875 -19.394531 10.296875 -18.695312 10.140625 -18.28125 L 6.921875 -9.046875 Z M 14.359375 -9.046875 "/></g></g></g><g fill="#000000" fill-opacity="1"><g transform="translate(237.590032, 312.842609)"><g><path d="M 4.328125 0 C 3.929688 0 3.640625 -0.09375 3.453125 -0.28125 C 3.273438 -0.46875 3.1875 -0.757812 3.1875 -1.15625 L 3.1875 -23.65625 C 3.1875 -24.238281 3.71875 -24.53125 4.78125 -24.53125 L 5.3125 -24.53125 C 6.382812 -24.53125 6.921875 -24.238281 6.921875 -23.65625 L 6.921875 -3.21875 L 15.9375 -3.21875 C 16.21875 -3.21875 16.421875 -3.117188 16.546875 -2.921875 C 16.679688 -2.722656 16.75 -2.398438 16.75 -1.953125 L 16.75 -1.265625 C 16.75 -0.816406 16.679688 -0.492188 16.546875 -0.296875 C 16.421875 -0.0976562 16.21875 0 15.9375 0 Z M 4.328125 0 "/></g></g></g><g fill="#000000" fill-opacity="1"><g transform="translate(257.198424, 312.842609)"><g><path d="M 4.328125 0 C 3.929688 0 3.640625 -0.09375 3.453125 -0.28125 C 3.273438 -0.46875 3.1875 -0.757812 3.1875 -1.15625 L 3.1875 -23.65625 C 3.1875 -24.238281 3.71875 -24.53125 4.78125 -24.53125 L 5.3125 -24.53125 C 6.382812 -24.53125 6.921875 -24.238281 6.921875 -23.65625 L 6.921875 -3.21875 L 15.9375 -3.21875 C 16.21875 -3.21875 16.421875 -3.117188 16.546875 -2.921875 C 16.679688 -2.722656 16.75 -2.398438 16.75 -1.953125 L 16.75 -1.265625 C 16.75 -0.816406 16.679688 -0.492188 16.546875 -0.296875 C 16.421875 -0.0976562 16.21875 0 15.9375 0 Z M 4.328125 0 "/></g></g></g><g fill="#000000" fill-opacity="1"><g transform="translate(146.728541, 262.24075)"><g><path d="M -14.6875 -6 C -14.6875 -5.5 -14.625 -5.054688 -14.5 -4.671875 C -14.382812 -4.296875 -14.21875 -3.976562 -14 -3.71875 C -13.789062 -3.46875 -13.535156 -3.273438 -13.234375 -3.140625 C -12.929688 -3.015625 -12.597656 -2.953125 -12.234375 -2.953125 C -11.972656 -2.953125 -11.71875 -2.984375 -11.46875 -3.046875 C -11.21875 -3.117188 -10.960938 -3.269531 -10.703125 -3.5 C -10.441406 -3.726562 -10.171875 -4.0625 -9.890625 -4.5 C -9.617188 -4.9375 -9.320312 -5.523438 -9 -6.265625 C -8.601562 -7.109375 -8.234375 -7.820312 -7.890625 -8.40625 C -7.554688 -9 -7.195312 -9.476562 -6.8125 -9.84375 C -6.425781 -10.21875 -5.992188 -10.484375 -5.515625 -10.640625 C -5.046875 -10.804688 -4.476562 -10.890625 -3.8125 -10.890625 C -3.3125 -10.890625 -2.8125 -10.789062 -2.3125 -10.59375 C -1.8125 -10.394531 -1.363281 -10.085938 -0.96875 -9.671875 C -0.570312 -9.265625 -0.25 -8.753906 0 -8.140625 C 0.238281 -7.523438 0.359375 -6.804688 0.359375 -5.984375 C 0.359375 -5.066406 0.273438 -4.289062 0.109375 -3.65625 C -0.0546875 -3.03125 -0.273438 -2.53125 -0.546875 -2.15625 C -0.816406 -1.78125 -1.125 -1.503906 -1.46875 -1.328125 C -1.820312 -1.160156 -2.171875 -1.078125 -2.515625 -1.078125 C -2.742188 -1.078125 -2.957031 -1.113281 -3.15625 -1.1875 C -3.351562 -1.257812 -3.523438 -1.363281 -3.671875 -1.5 C -3.828125 -1.632812 -3.945312 -1.800781 -4.03125 -2 C -4.125 -2.195312 -4.171875 -2.421875 -4.171875 -2.671875 C -4.171875 -2.898438 -4.128906 -3.109375 -4.046875 -3.296875 C -3.960938 -3.484375 -3.851562 -3.640625 -3.71875 -3.765625 C -3.582031 -3.898438 -3.421875 -4.003906 -3.234375 -4.078125 C -3.054688 -4.148438 -2.859375 -4.1875 -2.640625 -4.1875 C -2.148438 -4.1875 -1.773438 -4.039062 -1.515625 -3.75 C -1.265625 -3.46875 -1.140625 -3.101562 -1.140625 -2.65625 L -1.109375 -2.65625 C -1.046875 -2.695312 -0.96875 -2.789062 -0.875 -2.9375 C -0.78125 -3.082031 -0.679688 -3.28125 -0.578125 -3.53125 C -0.484375 -3.78125 -0.398438 -4.09375 -0.328125 -4.46875 C -0.253906 -4.84375 -0.21875 -5.285156 -0.21875 -5.796875 C -0.21875 -6.210938 -0.269531 -6.625 -0.375 -7.03125 C -0.488281 -7.445312 -0.648438 -7.816406 -0.859375 -8.140625 C -1.066406 -8.460938 -1.320312 -8.722656 -1.625 -8.921875 C -1.925781 -9.128906 -2.265625 -9.234375 -2.640625 -9.234375 C -2.960938 -9.234375 -3.257812 -9.171875 -3.53125 -9.046875 C -3.8125 -8.929688 -4.097656 -8.710938 -4.390625 -8.390625 C -4.679688 -8.066406 -4.988281 -7.613281 -5.3125 -7.03125 C -5.644531 -6.445312 -6.019531 -5.691406 -6.4375 -4.765625 C -6.726562 -4.066406 -7.050781 -3.5 -7.40625 -3.0625 C -7.757812 -2.625 -8.128906 -2.273438 -8.515625 -2.015625 C -8.910156 -1.765625 -9.320312 -1.585938 -9.75 -1.484375 C -10.175781 -1.390625 -10.617188 -1.34375 -11.078125 -1.34375 C -11.640625 -1.34375 -12.175781 -1.445312 -12.6875 -1.65625 C -13.195312 -1.863281 -13.640625 -2.164062 -14.015625 -2.5625 C -14.398438 -2.957031 -14.703125 -3.445312 -14.921875 -4.03125 C -15.148438 -4.613281 -15.265625 -5.273438 -15.265625 -6.015625 C -15.265625 -6.734375 -15.179688 -7.359375 -15.015625 -7.890625 C -14.847656 -8.421875 -14.625 -8.859375 -14.34375 -9.203125 C -14.070312 -9.554688 -13.753906 -9.820312 -13.390625 -10 C -13.023438 -10.175781 -12.644531 -10.265625 -12.25 -10.265625 C -12.03125 -10.265625 -11.828125 -10.226562 -11.640625 -10.15625 C -11.453125 -10.082031 -11.285156 -9.976562 -11.140625 -9.84375 C -10.992188 -9.71875 -10.878906 -9.554688 -10.796875 -9.359375 C -10.710938 -9.160156 -10.671875 -8.9375 -10.671875 -8.6875 C -10.671875 -8.457031 -10.707031 -8.25 -10.78125 -8.0625 C -10.851562 -7.875 -10.957031 -7.710938 -11.09375 -7.578125 C -11.226562 -7.441406 -11.382812 -7.335938 -11.5625 -7.265625 C -11.738281 -7.191406 -11.9375 -7.15625 -12.15625 -7.15625 C -12.40625 -7.15625 -12.625 -7.195312 -12.8125 -7.28125 C -13 -7.363281 -13.15625 -7.476562 -13.28125 -7.625 C -13.414062 -7.769531 -13.515625 -7.9375 -13.578125 -8.125 C -13.648438 -8.320312 -13.6875 -8.53125 -13.6875 -8.75 L -13.71875 -8.75 C -13.769531 -8.707031 -13.847656 -8.625 -13.953125 -8.5 C -14.066406 -8.375 -14.175781 -8.203125 -14.28125 -7.984375 C -14.382812 -7.765625 -14.476562 -7.488281 -14.5625 -7.15625 C -14.644531 -6.832031 -14.6875 -6.445312 -14.6875 -6 Z M -14.6875 -6 "/></g></g></g><g fill="#000000" fill-opacity="1"><g transform="translate(146.728541, 250.424748)"><g><path d="M 0 0.0625 L -0.46875 0.0625 L -0.578125 -1.203125 L -15.328125 -6.140625 L -15.328125 -6.609375 L -0.578125 -11.703125 L -0.46875 -13.09375 L 0 -13.09375 L 0 -7.5 L -0.46875 -7.5 L -0.578125 -8.90625 L -4.328125 -7.6875 L -4.328125 -3 L -0.578125 -1.796875 L -0.46875 -3.203125 L 0 -3.203125 Z M -4.953125 -3.1875 L -5.03125 -7.453125 L -11.4375 -5.359375 L -11.4375 -5.328125 Z M -4.953125 -3.1875 "/></g></g></g><g fill="#000000" fill-opacity="1"><g transform="translate(146.728541, 237.387801)"><g><path d="M -14.421875 -0.71875 L -14.890625 -0.71875 L -14.890625 -2.953125 L -4.046875 -11.90625 L -4.046875 -11.921875 L -14.3125 -11.78125 L -14.421875 -10.1875 L -14.890625 -10.1875 L -14.890625 -14.046875 L -14.421875 -14.046875 L -14.3125 -12.4375 L 0.203125 -12.5625 L 0.203125 -11.921875 L -10.671875 -2.96875 L -10.671875 -2.9375 L -0.578125 -3.09375 L -0.46875 -4.6875 L 0 -4.6875 L 0 -0.828125 L -0.46875 -0.828125 L -0.578125 -2.4375 L -14.3125 -2.3125 Z M -14.421875 -0.71875 "/></g></g></g><g fill="#000000" fill-opacity="1"><g transform="translate(146.728541, 222.503785)"><g><path d="M -7.1875 -1.015625 C -7.957031 -1.015625 -8.71875 -1.097656 -9.46875 -1.265625 C -10.21875 -1.441406 -10.941406 -1.710938 -11.640625 -2.078125 C -12.347656 -2.441406 -12.96875 -2.882812 -13.5 -3.40625 C -14.03125 -3.9375 -14.457031 -4.59375 -14.78125 -5.375 C -15.101562 -6.15625 -15.265625 -7.007812 -15.265625 -7.9375 C -15.265625 -9.03125 -14.960938 -9.988281 -14.359375 -10.8125 C -13.765625 -11.644531 -13.0625 -12.0625 -12.25 -12.0625 C -11.84375 -12.0625 -11.492188 -11.925781 -11.203125 -11.65625 C -10.910156 -11.394531 -10.765625 -11.039062 -10.765625 -10.59375 C -10.765625 -10.164062 -10.894531 -9.8125 -11.15625 -9.53125 C -11.425781 -9.257812 -11.769531 -9.125 -12.1875 -9.125 C -12.582031 -9.125 -12.914062 -9.253906 -13.1875 -9.515625 C -13.46875 -9.773438 -13.609375 -10.097656 -13.609375 -10.484375 C -13.609375 -10.554688 -13.601562 -10.609375 -13.59375 -10.640625 L -13.640625 -10.640625 C -13.835938 -10.535156 -14.054688 -10.253906 -14.296875 -9.796875 C -14.535156 -9.335938 -14.65625 -8.785156 -14.65625 -8.140625 C -14.65625 -6.867188 -14 -5.828125 -12.6875 -5.015625 C -11.375 -4.203125 -9.640625 -3.796875 -7.484375 -3.796875 C -6.554688 -3.796875 -5.679688 -3.875 -4.859375 -4.03125 C -4.035156 -4.195312 -3.285156 -4.4375 -2.609375 -4.75 C -1.929688 -5.070312 -1.390625 -5.5 -0.984375 -6.03125 C -0.585938 -6.570312 -0.390625 -7.1875 -0.390625 -7.875 C -0.390625 -8.863281 -0.679688 -9.722656 -1.265625 -10.453125 C -1.859375 -11.179688 -2.613281 -11.75 -3.53125 -12.15625 L -3.3125 -12.65625 C -0.863281 -11.65625 0.359375 -9.976562 0.359375 -7.625 C 0.359375 -6.601562 0.21875 -5.695312 -0.0625 -4.90625 C -0.34375 -4.125 -0.71875 -3.488281 -1.1875 -3 C -1.664062 -2.519531 -2.238281 -2.128906 -2.90625 -1.828125 C -3.570312 -1.523438 -4.25 -1.3125 -4.9375 -1.1875 C -5.625 -1.070312 -6.375 -1.015625 -7.1875 -1.015625 Z M -7.1875 -1.015625 "/></g></g></g><g fill="#000000" fill-opacity="1"><g transform="translate(146.728541, 209.299869)"><g><path d="M 0 -0.765625 L -0.46875 -0.765625 L -0.578125 -2.375 L -14.3125 -2.375 L -14.421875 -0.765625 L -14.890625 -0.765625 L -14.890625 -6.640625 L -14.421875 -6.640625 L -14.3125 -5.046875 L -7.953125 -5.046875 L -8.03125 -10.65625 L -14.3125 -10.65625 L -14.421875 -9.046875 L -14.890625 -9.046875 L -14.890625 -14.9375 L -14.421875 -14.9375 L -14.3125 -13.328125 L -0.578125 -13.328125 L -0.46875 -14.9375 L 0 -14.9375 L 0 -9.046875 L -0.46875 -9.046875 L -0.578125 -10.65625 L -7.328125 -10.65625 L -7.328125 -5.046875 L -0.578125 -5.046875 L -0.46875 -6.640625 L 0 -6.640625 Z M 0 -0.765625 "/></g></g></g><g fill="#000000" fill-opacity="1"><g transform="translate(146.728541, 193.476662)"><g><path d="M 0 -0.765625 L -0.46875 -0.765625 L -0.578125 -2.375 L -14.3125 -2.375 L -14.421875 -0.765625 L -14.890625 -0.765625 L -14.890625 -11.046875 L -10.640625 -11.140625 L -10.640625 -10.703125 C -11.117188 -10.617188 -11.519531 -10.53125 -11.84375 -10.4375 C -12.175781 -10.34375 -12.507812 -10.207031 -12.84375 -10.03125 C -13.175781 -9.863281 -13.441406 -9.660156 -13.640625 -9.421875 C -13.835938 -9.191406 -14 -8.894531 -14.125 -8.53125 C -14.25 -8.164062 -14.3125 -7.742188 -14.3125 -7.265625 C -14.3125 -6.671875 -14.28125 -5.929688 -14.21875 -5.046875 L -8.015625 -5.046875 C -7.992188 -5.253906 -7.984375 -5.628906 -7.984375 -6.171875 C -7.984375 -6.910156 -8.160156 -7.4375 -8.515625 -7.75 C -8.878906 -8.0625 -9.535156 -8.21875 -10.484375 -8.21875 L -10.484375 -8.78125 L -4.875 -8.78125 L -4.875 -8.21875 C -5.820312 -8.21875 -6.476562 -8.054688 -6.84375 -7.734375 C -7.21875 -7.421875 -7.40625 -6.898438 -7.40625 -6.171875 C -7.40625 -5.640625 -7.394531 -5.265625 -7.375 -5.046875 L -0.671875 -5.046875 C -0.609375 -5.929688 -0.578125 -6.8125 -0.578125 -7.6875 C -0.578125 -8.101562 -0.609375 -8.46875 -0.671875 -8.78125 C -0.734375 -9.09375 -0.84375 -9.363281 -1 -9.59375 C -1.15625 -9.820312 -1.328125 -10.015625 -1.515625 -10.171875 C -1.710938 -10.335938 -1.957031 -10.476562 -2.25 -10.59375 C -2.550781 -10.71875 -2.847656 -10.816406 -3.140625 -10.890625 C -3.441406 -10.972656 -3.816406 -11.054688 -4.265625 -11.140625 L -4.265625 -11.578125 L 0 -11.46875 Z M 0 -0.765625 "/></g></g></g><g fill="#000000" fill-opacity="1"><g transform="translate(146.728541, 180.72147)"><g><path d="M -10 -0.984375 L -14.890625 -1.3125 L -14.890625 -11 L -14.34375 -11 L -0.53125 -3.78125 L -0.46875 -7.765625 C -0.46875 -7.773438 -0.46875 -7.789062 -0.46875 -7.8125 C -0.476562 -8.207031 -0.570312 -8.570312 -0.75 -8.90625 C -0.945312 -9.25 -1.195312 -9.535156 -1.5 -9.765625 C -1.800781 -9.992188 -2.179688 -10.191406 -2.640625 -10.359375 C -3.109375 -10.523438 -3.566406 -10.65625 -4.015625 -10.75 C -4.460938 -10.84375 -4.96875 -10.925781 -5.53125 -11 L -5.53125 -11.46875 L 0 -11.140625 L 0 -1.015625 L -0.578125 -1.015625 L -14.375 -8.609375 L -14.3125 -5.09375 C -14.289062 -3.988281 -13.9375 -3.160156 -13.25 -2.609375 C -12.5625 -2.066406 -11.476562 -1.6875 -10 -1.46875 Z M -10 -0.984375 "/></g></g></g></svg>